<?xml version="1.0" encoding="utf-8"?>
<!-- Generator: Adobe Illustrator 21.1.0, SVG Export Plug-In . SVG Version: 6.00 Build 0)  -->
<svg version="1.1" id="Capa_1" xmlns="http://www.w3.org/2000/svg" xmlns:xlink="http://www.w3.org/1999/xlink" x="0px" y="0px"
	 viewBox="0 0 195.7 195.7" style="enable-background:new 0 0 195.7 195.7;" xml:space="preserve">
<style type="text/css">
	.st0{fill:#FFFFFF;}
</style>
<g>
	<g>
		<path class="st0" d="M99.1,65.1c18,0,32.5-14.6,32.5-32.5C131.6,14.6,117,0,99.1,0C81.1,0,66.5,14.6,66.5,32.6
			C66.5,50.5,81.1,65.1,99.1,65.1z M99.1,4.5c15.5,0,28.1,12.6,28.1,28.1c0,15.5-12.6,28.1-28.1,28.1C83.6,60.7,71,48.1,71,32.6
			C71,17.1,83.6,4.5,99.1,4.5z"/>
		<path class="st0" d="M171.6,105.8c-2.9-34.5-42.4-35-43.6-34.8H67.2c-15.3,0-26.1,5.9-26.1,5.9c-17.4,10.5-16.8,24.2-16.8,24.6
			l-0.1,50.2c-0.1,0.7,0,6.4,3.5,10.4c2.4,2.8,5.8,4.2,10,4.2h18.9l0,27.7l88.8,0.1v-3.5c2.8,3.1,6.7,5.1,11.2,5.1
			c8.3,0,15-6.7,15-15.1L171.6,105.8z M39.6,161.9l-1.9,0c-2.7,0-4.8-0.8-6.3-2.3c-2.7-2.8-2.7-7.3-2.7-7.5l0.1-50.3
			C28.8,101,30.2,90,41,82.5L39.6,161.9z M44.1,161.7L45.5,80c3.1-1.1,11.4-3.6,23.4-4.4l17.6,66c3.4,7.8,6,17.7,4.5,19.9
			c-0.1,0.1-0.1,0.2-0.6,0.2C90.5,161.7,44.1,161.7,44.1,161.7z M167.1,180.7c0,5.8-4.7,10.6-10.6,10.6c-5.8,0-10.6-4.7-10.6-10.7
			l0-2.2V99h-5.1l0,90.7L61,189.6l0-23.4h29.5h9.4c7.6,0,13.8-6.2,13.8-13.9s-6.2-13.8-13.8-13.8h-9.6l-16.8-63H128
			c1.5,0,36.5-0.1,39.1,30.5L167.1,180.7L167.1,180.7z M91.9,142.9h8c5.2,0,9.4,4.2,9.4,9.4c0,5.2-4.2,9.4-9.4,9.4l-4.2,0
			C96.8,156.5,93.9,147.9,91.9,142.9z"/>
	</g>
</g>
</svg>
