<?xml version="1.0" encoding="utf-8"?>
<!-- Generator: Adobe Illustrator 21.1.0, SVG Export Plug-In . SVG Version: 6.00 Build 0)  -->
<svg version="1.1" id="Capa_1" xmlns="http://www.w3.org/2000/svg" xmlns:xlink="http://www.w3.org/1999/xlink" x="0px" y="0px"
	 viewBox="0 0 316.1 316.1" style="enable-background:new 0 0 316.1 316.1;" xml:space="preserve">
<style type="text/css">
	.st0{fill:#FFFFFF;stroke:#FFFFFF;stroke-width:4;stroke-miterlimit:10;}
</style>
<g>
	<path class="st0" d="M285.2,161.3c-6.3-1.5-12.7-2.8-18.6-5.5c-3.3-1.5-6.4-3.2-9.9-4.3c-8.6-2.8-17.4-4.8-26.2-6.7
		c-13-2.8-25.9-5-39.1-6.3c-5.5-0.5-11-1.1-16.6-1.7c-2.2-0.2-4.4-0.4-6.6-0.7c-0.7-0.1-1.4-0.2-2.2-0.2c-0.4,0-1.1-0.3-0.4,0
		c-0.3-1.8-0.4-1.9,0.1-1.4c-1.3-7.9-1.8-13.5-1.7-21.7c0.1-4,0.8-8,1.4-12c0.5-3.2,0.7-6.6,2.3-9.5c2-3.6,6.3-4.2,10-4.7
		c3.4-0.5,6.7-0.9,10.1-1.3c17.6-2,35.2-3.3,52.8-5.3c3-0.3,6.1-0.7,9.1-1.2c1.6-0.3,3.3-0.5,4.8-1.2c0.9-0.5,1.5-1.6,1.5-2.6
		c0.1-2.2-1.8-3.2-3.6-3.7c-4.5-1.4-9.7-1.7-14.4-2.3c-9.6-1.3-19.2-2.5-28.8-3.4c-6.2-0.6-12.5,0.1-18.8,0.4
		c-9.2,0.3-18.4,0.5-27.6,1c-3.1,0.2-5.7,0.9-8.7,1.7c-2.4,0.7-4.9,1.3-7.4,1.6c-3.4,0.4-6.8-0.5-10-1.4c-1.8-0.5-5.7-2.7-7.5-1.6
		c0.6-0.4,0.1-0.1-0.2,0c-0.4,0.1-0.8,0.1-1.2,0.2c-2.2,0.3-5.2,0.6-7.8,0.8c-8.4,0.7-16.8,1.3-25.2,1.8c-7.1,0.5-14.2,0.9-21.3,1.7
		c-4.5,0.5-9,1.6-13.5,2.7c-7.9,1.8-15.7,3.9-23.5,6c-4.5,1.2-12.1,1.6-13.4,7.2c-0.7,3.1,1.1,4.2,3.8,4.5c6.5,0.8,13.6-0.5,20-1.2
		c8.6-0.9,17.2-2.1,25.9-3.1c3-0.3,5.9-0.7,8.9-0.9c5.9-0.4,11.8,0.5,17.6,1.1c3.7,0.4,7.5,0.6,11.2,0.9c2.5,0.2,5,1.1,6.8,2.9
		c3.6,3.5,3.7,9.8,4,14.4c0.7,8.1,0.8,16.2,1.2,24.2c0.4,9.2,0.8,18.4,1.7,27.6c0.7,7.2,1.6,14.3,2.3,21.4c0.8,8,1.4,16.1,2.4,24.1
		c0.5,4,1.2,7.9,1.5,11.9c0.3,4.2-0.1,8.4-0.2,12.5c-0.2,8.1-0.2,16.1,0.2,24.2c0.4,7.7,1.6,15.3,2.6,23c0.8,6.5,0.7,13.5-3.2,19.1
		c-3,4.2-1.6,8.7,3.4,10.2c4.7,1.4,10.8-0.3,12.7-5.2c1-2.6,1-5.3,0.7-8.1c-0.4-3.8-0.8-7.5-0.7-11.4c0.3-8.1,2.2-16.2,3.5-24.2
		c1.2-7.9,1.7-15.7,1.9-23.6c0.2-6.9,1.6-13.6,2-20.4c0.5-9,0.9-18.1,1.3-27.1c0.2-4.3,0.4-8.5,0.6-12.8c0.1-2.1-0.4-6.1,1.9-7.2
		c-0.5,0.1-0.1,0.3-0.6,0.4c1.7,0,2.6,0.1,4.3,0.2c3.9,0.2,7.8,0.5,11.7,0.7c10.3,0.6,20.6,1.1,30.9,1.8c4.8,0.3,9.6,0.8,14.4,0.8
		c6.7,0.1,13.5-0.6,20.2-1c6.3-0.3,12.4-0.2,18.5,1.4c7.3,2,14.2,5.1,21.3,7.7c5.3,1.9,11.1,0.9,14.1-4.1
		C295,167.8,289.2,162.5,285.2,161.3c-2.5-0.7-3.5,3.1-1.1,3.9c1.8,0.5,3.5,2.3,4.5,3.8c1,1.6-1.3,3.4-2.7,4
		c-2.9,1.2-6.2-0.1-8.8-1.2c-3.5-1.5-7-2.9-10.6-4.2c-6.1-2.2-12.4-4.1-18.9-4.4c-6.6-0.3-13.2,0.4-19.8,0.8
		c-10.7,0.7-21.2-0.3-31.9-0.9c-9.9-0.6-19.9-1.1-29.8-1.7c-2.8-0.2-5.7-0.3-8.5-0.5c-0.3,0-0.6,0-0.9-0.1c-0.2,0-0.5-0.1,0.3,0
		c-0.4-0.1-0.7-0.1-1.1,0c-2.4,0.6-4,3.7-4.1,6c-0.4,6.3-0.6,12.5-0.9,18.8c-0.4,8.9-0.8,17.8-1.3,26.7c-0.4,7.2-1.8,14.3-2,21.6
		c-0.3,8.3-1,16.3-2.3,24.5c-1.2,7.7-2.9,15.4-3.1,23.2c-0.1,3.5,0.5,6.8,0.8,10.2c0.3,2.9,0.3,6.6-2.6,8.2c-2,1.2-5.8,1.1-7.6-0.4
		c-1.5-1.2,1.8-5,2.3-6.1c3.1-5.9,2.9-12.8,2.1-19.2c-1-7.7-2.1-15.4-2.5-23.2c-0.4-8-0.4-16.1-0.2-24.2c0.1-3.9,0.4-7.7,0.1-11.6
		c-0.2-4-1-8-1.5-12c-1.2-8.3-1.7-16.7-2.5-25c-1.1-11.1-2.5-22.2-3.2-33.4c-0.6-9.9-1-19.8-1.4-29.6c-0.2-3.2-0.3-6.4-0.5-9.5
		c-0.4-5.1-0.8-10.5-3.5-14.9c-2.6-4.2-7.3-5.8-12-6.2c-8.1-0.7-16.2-1.6-24.3-2c-6.5-0.3-13.1,0.9-19.5,1.7
		c-8.7,1.1-17.5,2.2-26.2,3c-3.3,0.3-6.7,0.6-10.1,0.6c-0.8,0-2.4,0-2.8-0.1c-0.3,0-0.6-0.1-0.9-0.2c0.5,0.2-0.1-0.1,0.4,0.3
		c0.8,0.6,0.3,0.5,0.8-0.4c0.4-0.8,1.8-1.1,2.6-1.3c1.6-0.5,3.3-0.9,5-1.3c4.1-1.1,8.1-2.2,12.2-3.2c7.8-2,15.6-3.9,23.5-5.5
		c3.8-0.8,8.2-1,12.4-1.3c6.6-0.5,13.3-1,19.9-1.4c6.3-0.4,12.5-0.9,18.8-1.4c2-0.2,4-0.4,6-0.6c1.1-0.1,1.5,0,2.5-0.6
		c-0.5,0.1,0,0-0.5,0.1c5.8,1.8,11.9,4.2,18.1,3.3c2.5-0.4,4.9-1,7.4-1.6c1-0.3,2.1-0.6,3.1-0.9c0.4-0.1,1.9-0.5,1.6-0.5
		c8.1-0.9,16.4-0.8,24.5-1.1c4.8-0.2,9.5-0.3,14.3-0.5c2.5-0.1,5.1-0.5,7.6-0.3c8.5,0.7,17.1,1.8,25.6,2.9c4.9,0.6,9.9,1.3,14.8,2.1
		c1.2,0.2,2.3,0.4,3.5,0.6c0.6,0.1,1.2,0.3,1.8,0.5c0.9,0.3-0.2,0.1,0.1-0.6c0.2-0.5,0.6-0.6,0.6-0.6c-0.3,0.1-0.7,0.2-1,0.3
		c-5.6,1.4-11.6,1.7-17.4,2.3c-17.5,1.8-35.1,3.1-52.5,5.3c-2.8,0.4-5.7,0.7-8.5,1.3c-5.1,1-8.7,4.2-10.2,9.1
		c-1,3.2-1.3,6.8-1.8,10.2c-0.7,4-1.1,8-1.1,12c0.1,7.9,1.5,15.9,3.1,23.6c0.1,0.7,0.8,1.2,1.4,1.4c1.6,0.5,3.6,0.4,5.2,0.6
		c3.7,0.4,7.5,0.8,11.2,1.1c6.4,0.6,12.8,1.3,19.2,1.9c6.1,0.6,12.3,1.9,18.3,3c9.5,1.8,19,3.9,28.3,6.3c4.5,1.2,9.2,2.3,13.4,4.3
		c3.4,1.6,6.6,3.3,10.1,4.5c4.5,1.5,9.1,2.5,13.7,3.6C286.7,165.7,287.7,161.9,285.2,161.3z"/>
	<path class="st0" d="M164.6,34.7c-0.2,10.7-8.7,19.2-19.4,19.4c-10.7,0.2-19.2-9-19.4-19.4c-0.2-10.7,9-19.2,19.4-19.4
		C155.9,15.1,164.5,24.2,164.6,34.7c0,2.6,4,2.6,4,0c-0.2-11.1-7.9-20.7-18.8-23c-10.8-2.2-22,3.8-26.2,13.9
		c-4.3,10.4-0.5,22.2,8.7,28.5c9.2,6.4,22,4.5,29.7-3.2c4.3-4.3,6.5-10.3,6.6-16.3C168.7,32.1,164.7,32.1,164.6,34.7z"/>
</g>
</svg>
