<?xml version="1.0" encoding="utf-8"?>
<!-- Generator: Adobe Illustrator 21.1.0, SVG Export Plug-In . SVG Version: 6.00 Build 0)  -->
<svg version="1.1" id="Layer_1" xmlns="http://www.w3.org/2000/svg" xmlns:xlink="http://www.w3.org/1999/xlink" x="0px" y="0px"
	 viewBox="0 0 484 484" style="enable-background:new 0 0 484 484;" xml:space="preserve">
<style type="text/css">
	.st0{fill:#FFFFFF;}
</style>
<g>
	<g>
		<path class="st0" d="M414.7,95.6c-21.5-21.5-50.1-33.4-80.5-33.4c-30.4,0-59,11.8-80.5,33.4l-9,9l-9-9C214,74,185.4,62.2,155,62.2
			c-30.4,0-59,11.8-80.5,33.4c-44.4,44.4-44.4,116.7,0,161.1l161.6,161.6c2.3,2.3,5.4,3.5,8.5,3.5c3.1,0,6.1-1.2,8.5-3.5
			l161.6-161.6c21.5-21.5,33.4-50.1,33.4-80.5C448.1,145.7,436.3,117.1,414.7,95.6z M397.8,239.7L244.6,392.8L91.4,239.7
			c-35.1-35.1-35.1-92.1,0-127.1c17-17,39.6-26.3,63.6-26.3c24,0,46.6,9.4,63.6,26.3l17.5,17.5c4.7,4.7,12.3,4.7,17,0l17.5-17.5
			c17-17,39.6-26.3,63.6-26.3s46.6,9.4,63.6,26.3C432.8,147.6,432.8,204.6,397.8,239.7z"/>
	</g>
</g>
<g>
	<g>
		<path class="st0" d="M56,213.8H12c-6.6,0-12,5.4-12,12s5.4,12,12,12h44c6.6,0,12-5.4,12-12S62.6,213.8,56,213.8z"/>
	</g>
</g>
<g>
	<g>
		<path class="st0" d="M432,214.2H317.1l-17.9-39.3c-1.3-3-4.3-4.8-7.6-4.7c-3.3,0.1-6.1,2.2-7.2,5.3l-36.5,102.9l-44.4-123
			c-1.1-3-3.9-5.1-7.1-5.3c-3.5-0.2-6.2,1.7-7.6,4.6l-29.8,63.4H60c-4.4,0-8,3.6-8,8s5.3,7.6,9.7,7.6h104c3.1,0,4.2-1.4,5.6-4.2
			l23.8-50.5l45.5,125.9c1.1,3.2,4.2,5.3,7.5,5.3c0,0,0,0,0,0c3.4,0,6.4-2.1,7.5-5.3l37.4-105.3l11.8,26c1.3,2.9,5.8,4.3,9,4.3h120
			c4.4,0,6.3-3.2,6.3-7.6S436.4,214.2,432,214.2z"/>
	</g>
</g>
<g>
	<g>
		<path class="st0" d="M472,209.8h-36c-6.6,0-12,5.4-12,12s5.4,12,12,12h36c6.6,0,12-5.4,12-12S478.6,209.8,472,209.8z"/>
	</g>
</g>
</svg>
